<svg width="128" height="128" viewBox="0 0 128 128" fill="none" xmlns="http://www.w3.org/2000/svg">
<path d="M6.15002 99.4202C6.15002 89.7702 32.05 84.4902 64 84.4902C95.95 84.4902 121.85 89.7702 121.85 99.4202C121.85 113 95.95 124 64 124C32.05 124 6.15002 113 6.15002 99.4202Z" fill="#94D1E0"/>
<path d="M11.15 50.6802V96.2302H11.18C11.85 108.08 35.1 117.6 63.7 117.6C92.3 117.6 115.55 108.08 116.22 96.2302H116.25V50.6802H11.15Z" fill="#E63F33"/>
<path d="M23.43 75.6401C34.32 80.1801 48.62 82.6801 63.7 82.6801C78.78 82.6801 93.12 80.2701 103.97 75.6401C113.72 71.4801 114.71 68.7201 116.25 67.1301V61.0801C113.4 64.8601 108.59 68.2501 102.02 70.9801C91.73 75.2701 78.12 77.6301 63.69 77.6301C49.26 77.6301 35.65 75.2701 25.36 70.9801C18.8 68.2401 13.99 64.8601 11.13 61.0801V68.4501L16.18 72.0101C18.36 73.3201 20.77 74.5301 23.43 75.6401Z" fill="#BDBDBD"/>
<path d="M43.15 76.7998V117.29M84.25 76.7998V117.29" stroke="#94D1E0" stroke-width="4.093" stroke-miterlimit="10" stroke-linecap="round"/>
<path d="M42.01 106.05C41.0632 105.694 40.2707 105.019 39.77 104.14C38.92 102.61 38.99 100.65 38.96 98.6898C38.9 94.4198 40.08 93.3598 41.47 93.3598H44.82C47.33 94.3898 47.33 96.4598 47.33 97.8498V100.23C47.33 102.33 47.44 104.43 45.43 105.76C45.24 105.89 43.68 106.66 42.01 106.05ZM85.36 106.05C86.26 105.64 87.05 104.95 87.6 104.14C88.79 102.39 88.38 100.65 88.41 98.6898C88.47 94.6498 87.29 93.3598 85.9 93.3598H82.55C80.04 94.3898 80.04 96.4598 80.04 97.8498V100.23C80.04 102.33 80.08 104.22 81.94 105.76C82.8 106.47 84.45 106.47 85.36 106.05ZM120.33 83.0898C120.23 78.3798 119.37 77.5698 117.13 77.7598V61.3298L113.83 63.3698L114.07 102.61C114.07 102.61 117.12 103.55 117.12 100.26V90.6598C120.38 89.5198 120.55 86.0498 120.33 83.0898ZM13.49 62.8598L10.19 60.8198V77.7598C7.95003 77.5698 7.09003 78.3798 6.99003 83.0898C6.99003 85.0498 6.66003 86.7898 7.69003 88.5398C8.28003 89.5198 9.13003 90.3498 10.19 90.6598V99.8698C10.19 103.16 13.24 102.22 13.24 102.22L13.49 62.8598Z" fill="#94D1E0"/>
<path d="M119.16 52.5001C117.53 33.2501 82.8 27.8201 63.7 27.8801C44.77 27.7201 8.40999 33.5701 8.25999 53.3401C-2.17001 71.9601 30.89 84.4201 64 84.5001C97.22 84.5801 131.53 71.3401 119.16 52.5001Z" fill="#94D1E0"/>
<path d="M63.7 74.59C92.7226 74.59 116.25 64.7851 116.25 52.69C116.25 40.595 92.7226 30.79 63.7 30.79C34.6775 30.79 11.15 40.595 11.15 52.69C11.15 64.7851 34.6775 74.59 63.7 74.59Z" fill="#FFCC80"/>
<path d="M63.6999 74.9298C90.4913 74.9298 112.21 65.8814 112.21 54.7198C112.21 43.5581 90.4913 34.5098 63.6999 34.5098C36.9086 34.5098 15.1899 43.5581 15.1899 54.7198C15.1899 65.8814 36.9086 74.9298 63.6999 74.9298Z" fill="#FEF6E0"/>
<path d="M53.91 67.0799L18.96 43.8599L24.48 41.1899L55.54 64.7899L53.91 67.0799ZM74.35 67.0799L109.29 43.8599L103.78 41.1899L72.71 64.7899L74.35 67.0799Z" fill="#FFCC80"/>
<path d="M57.64 62.6501C56.23 60.7401 53.94 60.3101 53.65 59.7801L52.51 57.7401C52.12 57.0401 51.83 56.6001 51.51 56.1801L11.87 5.14011C11.4139 4.55144 10.7513 4.15792 10.0162 4.03911C9.28109 3.9203 8.52827 4.08507 7.90999 4.50011C7.57198 4.72872 7.28544 5.02541 7.06874 5.37118C6.85204 5.71695 6.70996 6.10417 6.65159 6.50804C6.59322 6.91191 6.61986 7.32352 6.72979 7.71649C6.83972 8.10947 7.03053 8.47515 7.28999 8.79011L47.31 59.2001C47.84 59.8601 48.44 60.4601 49.11 60.9701L50.79 62.2601C51.24 62.6001 51.16 64.7701 52.75 66.2301C54.07 67.4401 56.13 67.8801 57.44 66.5001C58.45 65.4501 58.47 63.7701 57.64 62.6501ZM70.83 62.6501C72.24 60.7401 74.53 60.3101 74.82 59.7801L75.96 57.7401C76.35 57.0401 76.64 56.6001 76.96 56.1801L116.6 5.14011C117.55 3.92011 119.28 3.64011 120.56 4.50011C120.898 4.72872 121.185 5.02541 121.401 5.37118C121.618 5.71695 121.76 6.10417 121.818 6.50804C121.877 6.91191 121.85 7.32352 121.74 7.71649C121.63 8.10947 121.439 8.47515 121.18 8.79011L81.16 59.2101C80.63 59.8701 80.03 60.4701 79.36 60.9801L77.68 62.2701C77.23 62.6101 77.31 64.7801 75.72 66.2401C74.4 67.4501 72.34 67.8901 71.03 66.5101C70.02 65.4501 70 63.7701 70.83 62.6501Z" fill="#BA793E"/>
<path d="M19.0499 72.2401C13.2399 68.6301 10.5699 64.9801 11.0399 63.7701C11.3399 63.0001 12.4499 63.0001 12.9799 63.6301C18.2299 69.8101 28.9899 74.1601 36.7599 75.6001C37.5699 75.7501 38.1899 77.2601 36.0099 77.4701C34.1199 77.6401 26.7199 77.0101 19.0499 72.2401ZM83.5999 104.02C82.9399 104.29 82.1999 103.49 81.8899 102.44C81.5799 101.39 81.3999 97.7301 81.5799 96.6601C81.7499 95.6001 81.9699 94.9501 82.7999 94.9501C83.6299 94.9501 84.2999 95.6201 84.2999 96.4501C84.2999 96.4501 84.1999 100.45 84.2499 101.42C84.2999 102.41 84.2599 103.75 83.5999 104.02ZM42.4499 104.02C41.7899 104.29 41.0499 103.49 40.7399 102.44C40.4299 101.39 40.2499 97.7301 40.4299 96.6601C40.6099 95.5901 40.8199 94.9501 41.6499 94.9501C42.4799 94.9501 43.1499 95.6201 43.1499 96.4501C43.1499 96.4501 43.0499 100.45 43.0999 101.42C43.1499 102.41 43.1099 103.75 42.4499 104.02Z" fill="white"/>
</svg>
